<svg version="1.2" baseProfile="tiny-ps" xmlns="http://www.w3.org/2000/svg" viewBox="0 0 295 120" width="295" height="120">
	<title>logo-crocs-svg</title>
	<style>
		tspan { white-space:pre }
		.shp0 { fill: #000000 } 
	</style>
	<path id="Layer" class="shp0" d="M28.7 47.6C32.5 47.6 36.1 49.6 38.1 52.4C38.2 52.5 38.2 52.5 38.3 52.6C38.4 52.7 38.5 52.8 38.5 52.9L38.5 52.9C39.8 54.6 41.9 55.6 44.2 55.6C48.2 55.6 51.5 52.3 51.5 48.3C51.5 46.4 50.8 44.7 49.6 43.4C44.6 37.2 38.6 33.6 28.6 33.6C12.9 33.6 1.1 44.5 1.1 59.8C1.1 75.3 12.9 86.2 28.7 86.2C38.8 86.2 44.7 82.7 49.7 77.1L49.7 77.1C50.8 75.8 51.5 74.2 51.5 72.4C51.5 68.4 48.3 65.2 44.3 65.2C42.1 65.2 40.2 66.2 38.9 67.7C36.5 70.1 33.8 72.4 28.8 72.4C21.6 72.4 17.5 67.2 17.5 59.8C17.4 52.7 21.4 47.6 28.7 47.6Z" />
	<path id="Layer" class="shp0" d="M96.8 36.9C94.3 35.6 92.6 35.3 88.9 35.6C82.3 36.2 77.2 40.8 76.3 41.9L76.3 42.2C76.3 42.1 76.3 42 76.3 41.9L76.3 41.9L76.3 41.9C76 37.7 72.5 34.3 68.2 34.3C63.7 34.3 60.1 37.9 60 42.3L60 78C60.1 82.4 63.7 85.9 68.2 85.9C72.7 85.9 76.3 82.3 76.4 77.9L76.4 68.2C76.4 55 84.1 51.6 88.4 51.5C89.5 51.5 92.4 52.6 94.7 52.2C99.2 51.4 102.1 47.1 101.3 42.7C100.7 40.1 99 38 96.8 36.9Z" />
	<path id="Layer" fill-rule="evenodd" class="shp0" d="M132.6 33.6C148.2 33.6 160.3 44.6 160.3 60C160.3 75.3 148.2 86.2 132.6 86.2C117 86.2 104.8 75.3 104.8 60C104.8 44.6 117 33.6 132.6 33.6ZM132.6 72.8C139.7 72.8 143.9 67.6 144 60.1C144 52.5 139.7 47.4 132.6 47.4C125.5 47.4 121.1 52.5 121.1 60.1C121.1 67.5 125.5 72.8 132.6 72.8Z" />
	<path id="Layer" class="shp0" d="M196.3 47.6C200.1 47.6 203.7 49.6 205.7 52.4C205.8 52.5 205.8 52.5 205.9 52.6C206 52.7 206.1 52.8 206.1 52.9L206.1 52.9C207.4 54.6 209.5 55.6 211.8 55.6C215.8 55.6 219.1 52.3 219.1 48.3C219.1 46.4 218.4 44.7 217.2 43.4C212.2 37.2 206.2 33.6 196.3 33.6C180.6 33.6 168.7 44.5 168.7 59.8C168.7 75.3 180.5 86.2 196.3 86.2C206.4 86.2 212.3 82.7 217.3 77.1L217.3 77.1C218.4 75.8 219.1 74.2 219.1 72.4C219.1 68.4 215.9 65.2 211.9 65.2C209.7 65.2 207.8 66.2 206.5 67.7C204.1 70.1 201.4 72.4 196.3 72.4C189.1 72.4 185 67.2 185 59.8C185.1 52.7 189.1 47.6 196.3 47.6Z" />
	<path id="Layer" class="shp0" d="M252.4 53.6C259.7 55.3 268.9 58.7 268.9 69.5C268.9 78.7 264.1 86.3 248.2 86.3C238.5 86.3 232.2 83.3 227.8 79.4C227.7 79.3 227.6 79.2 227.5 79.1C227.3 79 227.2 78.8 227.1 78.7C227 78.6 226.9 78.4 226.8 78.3C226.6 78.1 226.5 77.9 226.4 77.7C226.4 77.7 226.3 77.6 226.3 77.5C225 75.1 225.3 72.1 227.3 70.1C229.7 67.6 233.7 67.5 236.2 69.8L236.2 69.8L236.1 69.7C239.3 72.2 243.1 73.7 247.2 73.7C252.4 73.7 254.1 72.7 254.1 70.6C254.1 67.8 250.9 67.8 242.7 65.7C235.8 63.9 228.1 60.1 228.1 49.6C228.1 38.2 236.8 33.6 247.6 33.6C255.9 33.6 261.8 36.3 265.9 40.5C267.2 41.6 268 43.3 268 45.1C268 48.6 265.2 51.4 261.7 51.4C260 51.4 258.5 50.8 257.4 49.7L257.4 49.7C255 47.7 251.5 45.9 247.7 45.9C244.1 45.9 242.3 46.9 242.3 48.9C242.3 51.7 245.5 52.1 252.4 53.6Z" />
	<path id="Layer" class="shp0" d="M274.3 36.1L274.3 34.8L269 34.8L269 36.1L270.9 36.1L270.9 41.3L272.5 41.3L272.5 36.1L274.3 36.1Z" />
	<path id="Layer" class="shp0" d="M281.2 41.3L281.2 36.7L281.2 36.7L279.5 41.3L278.4 41.3L276.7 36.7L276.7 36.7L276.7 41.3L275.2 41.3L275.2 34.8L277.4 34.8L279 39.1L280.6 34.8L282.7 34.8L282.7 41.3L281.2 41.3Z" />
</svg>