<?xml version="1.0"?>
<svg xmlns="http://www.w3.org/2000/svg" xmlns:xlink="http://www.w3.org/1999/xlink" xmlns:svgjs="http://svgjs.com/svgjs" version="1.1" width="512" height="512" x="0" y="0" viewBox="0 0 448.941 448.941" style="enable-background:new 0 0 512 512" xml:space="preserve" class=""><g transform="matrix(-1,0,0,1,448.9420356750488,0)"><path xmlns="http://www.w3.org/2000/svg" d="m364.765 0h-252.53c-30.95 0-56.118 25.168-56.118 56.118v28.059h-28.058v56.118h28.059v56.118h-28.059v56.118h28.059v56.118h-28.059v56.118h28.059v28.059c0 30.95 25.168 56.118 56.118 56.118h252.529c30.95 0 56.118-25.168 56.118-56.118v-336.708c-.001-30.95-25.169-56.118-56.118-56.118zm-126.265 112.235c30.95 0 56.118 25.168 56.118 56.118s-25.168 56.118-56.118 56.118-56.118-25.168-56.118-56.118 25.168-56.118 56.118-56.118zm98.206 196.412h-196.412v-28.059c0-19.441 13.481-36.334 36.074-45.198 36.307-14.276 87.944-14.276 124.278 0 22.579 8.864 36.06 25.757 36.06 45.198z" fill="#707070" data-original="#000000" style="" class=""/></g></svg>
