<?xml version="1.0"?>
<svg xmlns="http://www.w3.org/2000/svg" xmlns:xlink="http://www.w3.org/1999/xlink" xmlns:svgjs="http://svgjs.com/svgjs" version="1.1" width="512" height="512" x="0" y="0" viewBox="0 0 512 512" style="enable-background:new 0 0 512 512" xml:space="preserve" class=""><g>
<g xmlns="http://www.w3.org/2000/svg">
	<g>
		<rect x="222.8" width="66.4" height="128.53" fill="#707070" data-original="#000000" style="" class=""/>
	</g>
</g>
<g xmlns="http://www.w3.org/2000/svg">
	<g>
		<path d="M497,0H319.201v143.533c0,8.284-6.717,15-15,15h-96.4c-8.283,0-15-6.716-15-15V0H15C6.716,0,0,6.717,0,15v482    c0,8.284,6.716,15,15,15h482c8.285,0,15-6.716,15-15V15C512,6.717,505.285,0,497,0z M352.4,391.5h-96.398c-8.283,0-15-6.716-15-15    c0-8.283,6.717-15,15-15H352.4c18.307,0,33.199-14.894,33.199-33.199c0-18.308-14.893-33.201-33.199-33.201H147.613l22.594,22.594    c5.857,5.857,5.857,15.355,0,21.213c-2.93,2.929-6.77,4.395-10.607,4.395c-3.84,0-7.678-1.465-10.607-4.395l-48.199-48.2    c-2.813-2.813-4.393-6.628-4.393-10.606c0-3.979,1.58-7.794,4.393-10.606l48.203-48.199c5.857-5.858,15.355-5.858,21.213,0    c5.858,5.858,5.857,15.355,0,21.213L147.615,265.1H352.4c34.848,0,63.199,28.352,63.199,63.201    C415.6,363.148,387.248,391.5,352.4,391.5z" fill="#707070" data-original="#000000" style="" class=""/>
	</g>
</g>
<g xmlns="http://www.w3.org/2000/svg">
</g>
<g xmlns="http://www.w3.org/2000/svg">
</g>
<g xmlns="http://www.w3.org/2000/svg">
</g>
<g xmlns="http://www.w3.org/2000/svg">
</g>
<g xmlns="http://www.w3.org/2000/svg">
</g>
<g xmlns="http://www.w3.org/2000/svg">
</g>
<g xmlns="http://www.w3.org/2000/svg">
</g>
<g xmlns="http://www.w3.org/2000/svg">
</g>
<g xmlns="http://www.w3.org/2000/svg">
</g>
<g xmlns="http://www.w3.org/2000/svg">
</g>
<g xmlns="http://www.w3.org/2000/svg">
</g>
<g xmlns="http://www.w3.org/2000/svg">
</g>
<g xmlns="http://www.w3.org/2000/svg">
</g>
<g xmlns="http://www.w3.org/2000/svg">
</g>
<g xmlns="http://www.w3.org/2000/svg">
</g>
</g></svg>
